<?xml version="1.0" encoding="UTF-8" standalone="no"?>
<!DOCTYPE svg PUBLIC "-//W3C//DTD SVG 1.1//EN" "http://www.w3.org/Graphics/SVG/1.1/DTD/svg11.dtd">
<svg width="100%" height="100%" viewBox="0 0 300 300" version="1.1" xmlns="http://www.w3.org/2000/svg" xmlns:xlink="http://www.w3.org/1999/xlink" xml:space="preserve" xmlns:serif="http://www.serif.com/" style="fill-rule:evenodd;clip-rule:evenodd;stroke-linejoin:round;stroke-miterlimit:2;">
    <g transform="matrix(0.935351,-0.35372,0.35372,0.935351,-1241.15,287.078)">
        <g transform="matrix(6.26841,1.09576,-1.09576,6.26841,-6187.57,-2667.37)">
            <g transform="matrix(12,0,0,12,1228.6,253.122)">
                <path d="M0.148,-0.341C0.174,-0.341 0.187,-0.327 0.187,-0.3C0.187,-0.277 0.178,-0.253 0.159,-0.229C0.145,-0.21 0.132,-0.201 0.122,-0.201C0.112,-0.201 0.108,-0.206 0.108,-0.217C0.108,-0.222 0.109,-0.227 0.112,-0.23C0.113,-0.231 0.117,-0.235 0.124,-0.241C0.129,-0.247 0.135,-0.255 0.142,-0.266C0.146,-0.274 0.148,-0.28 0.148,-0.284C0.148,-0.289 0.145,-0.292 0.139,-0.292C0.132,-0.292 0.122,-0.287 0.108,-0.276C0.086,-0.259 0.064,-0.232 0.042,-0.195C0.019,-0.156 0.007,-0.126 0.007,-0.104C0.007,-0.097 0.009,-0.09 0.014,-0.085C0.02,-0.076 0.028,-0.072 0.039,-0.072C0.059,-0.072 0.083,-0.085 0.111,-0.11C0.135,-0.132 0.155,-0.154 0.171,-0.176C0.18,-0.188 0.187,-0.194 0.193,-0.194C0.197,-0.194 0.2,-0.192 0.203,-0.189C0.206,-0.186 0.207,-0.182 0.207,-0.179C0.207,-0.167 0.192,-0.144 0.161,-0.109C0.111,-0.054 0.067,-0.027 0.027,-0.027C0.003,-0.027 -0.016,-0.035 -0.028,-0.053C-0.037,-0.065 -0.042,-0.08 -0.042,-0.098C-0.042,-0.132 -0.028,-0.171 0,-0.215C0.027,-0.258 0.058,-0.292 0.094,-0.318C0.115,-0.333 0.133,-0.341 0.148,-0.341Z" style="fill-rule:nonzero;"/>
            </g>
            <g transform="matrix(12,0,0,12,1231.88,253.122)">
                <path d="M0.052,-0.2C0.042,-0.175 0.035,-0.154 0.03,-0.139C0.025,-0.123 0.022,-0.112 0.022,-0.106C0.022,-0.098 0.026,-0.094 0.034,-0.094C0.046,-0.094 0.061,-0.105 0.08,-0.127C0.088,-0.138 0.101,-0.157 0.119,-0.185C0.125,-0.196 0.133,-0.202 0.14,-0.202C0.149,-0.202 0.153,-0.198 0.153,-0.189C0.153,-0.175 0.137,-0.147 0.104,-0.104C0.071,-0.06 0.04,-0.038 0.011,-0.038C-0.001,-0.038 -0.011,-0.043 -0.019,-0.053C-0.025,-0.061 -0.027,-0.07 -0.027,-0.081C-0.027,-0.099 -0.022,-0.124 -0.011,-0.156C0,-0.188 0.017,-0.228 0.039,-0.274C0.095,-0.391 0.152,-0.488 0.21,-0.564C0.257,-0.626 0.295,-0.656 0.326,-0.656C0.335,-0.656 0.343,-0.653 0.35,-0.645C0.356,-0.638 0.359,-0.629 0.359,-0.619C0.359,-0.574 0.319,-0.498 0.237,-0.392C0.201,-0.344 0.157,-0.297 0.106,-0.25C0.093,-0.238 0.075,-0.221 0.052,-0.2ZM0.086,-0.278C0.154,-0.336 0.215,-0.409 0.268,-0.498C0.296,-0.543 0.31,-0.574 0.31,-0.589C0.31,-0.596 0.306,-0.6 0.3,-0.6C0.282,-0.6 0.25,-0.564 0.203,-0.493C0.164,-0.434 0.125,-0.362 0.086,-0.278Z" style="fill-rule:nonzero;"/>
            </g>
            <g transform="matrix(12,0,0,12,1234.46,253.122)">
                <path d="M0.1,-0.331C0.105,-0.331 0.11,-0.328 0.113,-0.324C0.116,-0.321 0.117,-0.317 0.117,-0.313C0.117,-0.308 0.112,-0.298 0.103,-0.284C0.069,-0.232 0.045,-0.189 0.031,-0.155C0.015,-0.12 0.002,-0.084 -0.01,-0.047C-0.015,-0.031 -0.023,-0.023 -0.034,-0.023C-0.041,-0.023 -0.046,-0.026 -0.05,-0.031C-0.053,-0.035 -0.055,-0.04 -0.055,-0.044C-0.055,-0.054 -0.045,-0.087 -0.024,-0.142C-0.008,-0.186 0.019,-0.234 0.055,-0.287C0.067,-0.304 0.076,-0.315 0.082,-0.321C0.087,-0.327 0.093,-0.331 0.1,-0.331ZM0.192,-0.512C0.207,-0.512 0.214,-0.504 0.214,-0.489C0.214,-0.476 0.207,-0.46 0.193,-0.444C0.179,-0.428 0.166,-0.42 0.153,-0.42C0.147,-0.42 0.142,-0.422 0.138,-0.427C0.134,-0.431 0.132,-0.436 0.132,-0.442C0.132,-0.458 0.141,-0.475 0.158,-0.492C0.171,-0.505 0.182,-0.512 0.192,-0.512Z" style="fill-rule:nonzero;"/>
            </g>
            <g transform="matrix(12,0,0,12,1236.04,253.122)">
                <path d="M0.148,-0.341C0.174,-0.341 0.187,-0.327 0.187,-0.3C0.187,-0.277 0.178,-0.253 0.159,-0.229C0.145,-0.21 0.132,-0.201 0.122,-0.201C0.112,-0.201 0.108,-0.206 0.108,-0.217C0.108,-0.222 0.109,-0.227 0.112,-0.23C0.113,-0.231 0.117,-0.235 0.124,-0.241C0.129,-0.247 0.135,-0.255 0.142,-0.266C0.146,-0.274 0.148,-0.28 0.148,-0.284C0.148,-0.289 0.145,-0.292 0.139,-0.292C0.132,-0.292 0.122,-0.287 0.108,-0.276C0.086,-0.259 0.064,-0.232 0.042,-0.195C0.019,-0.156 0.007,-0.126 0.007,-0.104C0.007,-0.097 0.009,-0.09 0.014,-0.085C0.02,-0.076 0.028,-0.072 0.039,-0.072C0.059,-0.072 0.083,-0.085 0.111,-0.11C0.135,-0.132 0.155,-0.154 0.171,-0.176C0.18,-0.188 0.187,-0.194 0.193,-0.194C0.197,-0.194 0.2,-0.192 0.203,-0.189C0.206,-0.186 0.207,-0.182 0.207,-0.179C0.207,-0.167 0.192,-0.144 0.161,-0.109C0.111,-0.054 0.067,-0.027 0.027,-0.027C0.003,-0.027 -0.016,-0.035 -0.028,-0.053C-0.037,-0.065 -0.042,-0.08 -0.042,-0.098C-0.042,-0.132 -0.028,-0.171 0,-0.215C0.027,-0.258 0.058,-0.292 0.094,-0.318C0.115,-0.333 0.133,-0.341 0.148,-0.341Z" style="fill-rule:nonzero;"/>
            </g>
            <g transform="matrix(12,0,0,12,1239.32,253.122)">
                <path d="M0.172,-0.247C0.151,-0.195 0.14,-0.155 0.14,-0.127C0.14,-0.114 0.143,-0.103 0.148,-0.094C0.154,-0.083 0.163,-0.078 0.174,-0.078C0.196,-0.078 0.222,-0.092 0.25,-0.122C0.27,-0.141 0.286,-0.16 0.299,-0.18C0.307,-0.193 0.315,-0.199 0.323,-0.199C0.33,-0.199 0.334,-0.195 0.334,-0.188C0.334,-0.176 0.319,-0.15 0.289,-0.112C0.245,-0.055 0.202,-0.026 0.16,-0.026C0.135,-0.026 0.117,-0.039 0.107,-0.063C0.099,-0.081 0.095,-0.1 0.095,-0.12C0.095,-0.136 0.099,-0.161 0.107,-0.193C0.086,-0.176 0.054,-0.133 0.011,-0.064C-0.001,-0.046 -0.011,-0.037 -0.021,-0.037C-0.025,-0.037 -0.03,-0.039 -0.033,-0.043C-0.037,-0.048 -0.039,-0.052 -0.039,-0.057C-0.039,-0.07 -0.021,-0.113 0.013,-0.187C0.073,-0.316 0.137,-0.425 0.206,-0.513C0.243,-0.561 0.277,-0.597 0.306,-0.619C0.333,-0.639 0.354,-0.649 0.37,-0.649C0.377,-0.649 0.384,-0.646 0.389,-0.64C0.396,-0.633 0.4,-0.624 0.4,-0.614C0.4,-0.586 0.385,-0.551 0.356,-0.507C0.326,-0.463 0.275,-0.409 0.202,-0.346C0.161,-0.311 0.125,-0.283 0.092,-0.263C0.088,-0.254 0.076,-0.229 0.057,-0.188C0.097,-0.232 0.13,-0.263 0.153,-0.279C0.169,-0.29 0.189,-0.301 0.215,-0.312C0.233,-0.319 0.246,-0.323 0.253,-0.323C0.258,-0.323 0.261,-0.322 0.265,-0.318C0.268,-0.315 0.27,-0.312 0.27,-0.307C0.27,-0.296 0.263,-0.288 0.248,-0.284C0.223,-0.277 0.198,-0.264 0.172,-0.247ZM0.13,-0.331C0.183,-0.366 0.233,-0.411 0.279,-0.465C0.302,-0.492 0.321,-0.518 0.335,-0.543C0.345,-0.561 0.35,-0.574 0.35,-0.581C0.35,-0.589 0.346,-0.592 0.339,-0.592C0.321,-0.592 0.29,-0.564 0.245,-0.508C0.208,-0.462 0.17,-0.403 0.13,-0.331Z" style="fill-rule:nonzero;"/>
            </g>
            <g transform="matrix(12,0,0,12,1246.59,253.122)">
                <path d="M0.15,-0.353C0.129,-0.32 0.11,-0.283 0.092,-0.242C0.066,-0.184 0.053,-0.141 0.053,-0.112C0.053,-0.104 0.055,-0.098 0.058,-0.094C0.062,-0.09 0.067,-0.087 0.074,-0.087C0.09,-0.087 0.11,-0.103 0.133,-0.133C0.147,-0.152 0.16,-0.171 0.172,-0.19C0.178,-0.201 0.185,-0.206 0.192,-0.206C0.196,-0.206 0.2,-0.205 0.203,-0.202C0.205,-0.199 0.207,-0.196 0.207,-0.193C0.207,-0.181 0.191,-0.154 0.159,-0.112C0.121,-0.062 0.087,-0.037 0.056,-0.037C0.039,-0.037 0.025,-0.045 0.014,-0.06C0.007,-0.07 0.004,-0.084 0.004,-0.102C0.004,-0.141 0.015,-0.187 0.038,-0.239C0.044,-0.252 0.059,-0.284 0.084,-0.333C0.075,-0.331 0.069,-0.33 0.064,-0.33C0.057,-0.33 0.051,-0.332 0.046,-0.335C0.039,-0.34 0.035,-0.345 0.035,-0.352C0.035,-0.36 0.04,-0.367 0.049,-0.372C0.052,-0.373 0.064,-0.375 0.085,-0.378C0.093,-0.379 0.105,-0.382 0.12,-0.387C0.131,-0.408 0.15,-0.436 0.175,-0.471C0.19,-0.49 0.2,-0.503 0.205,-0.509C0.213,-0.517 0.22,-0.521 0.226,-0.521C0.23,-0.521 0.234,-0.519 0.238,-0.514C0.242,-0.51 0.244,-0.506 0.244,-0.501C0.244,-0.493 0.235,-0.476 0.217,-0.451C0.205,-0.435 0.196,-0.422 0.19,-0.412C0.226,-0.421 0.252,-0.426 0.268,-0.426C0.285,-0.426 0.294,-0.419 0.294,-0.404C0.294,-0.396 0.291,-0.391 0.285,-0.387C0.282,-0.385 0.273,-0.384 0.26,-0.382C0.254,-0.383 0.23,-0.376 0.186,-0.364C0.174,-0.36 0.162,-0.356 0.15,-0.353Z" style="fill-rule:nonzero;"/>
            </g>
            <g transform="matrix(12,0,0,12,1249.52,253.122)">
                <path d="M0.16,-0.353C0.187,-0.353 0.2,-0.337 0.2,-0.304C0.2,-0.261 0.18,-0.206 0.14,-0.14C0.097,-0.068 0.054,-0.032 0.014,-0.032C-0.005,-0.032 -0.019,-0.041 -0.028,-0.058C-0.032,-0.067 -0.035,-0.077 -0.035,-0.09C-0.035,-0.132 -0.02,-0.177 0.008,-0.226C0.035,-0.271 0.066,-0.306 0.103,-0.331C0.124,-0.346 0.143,-0.353 0.16,-0.353ZM0.109,-0.168C0.101,-0.175 0.097,-0.18 0.097,-0.184C0.097,-0.186 0.102,-0.193 0.113,-0.205C0.142,-0.238 0.157,-0.264 0.157,-0.285C0.157,-0.287 0.156,-0.29 0.154,-0.292C0.152,-0.297 0.148,-0.3 0.142,-0.3C0.132,-0.3 0.116,-0.29 0.096,-0.27C0.07,-0.243 0.05,-0.217 0.037,-0.189C0.021,-0.157 0.013,-0.131 0.013,-0.11C0.013,-0.105 0.014,-0.1 0.017,-0.096C0.021,-0.09 0.027,-0.087 0.033,-0.087C0.049,-0.087 0.066,-0.099 0.083,-0.122C0.091,-0.132 0.098,-0.142 0.103,-0.152C0.107,-0.163 0.11,-0.168 0.109,-0.168Z" style="fill-rule:nonzero;"/>
            </g>
            <g transform="matrix(12,0,0,12,1255.3,253.122)">
                <path d="M0.008,-0.095C0.038,-0.105 0.064,-0.11 0.086,-0.11C0.124,-0.11 0.143,-0.1 0.143,-0.081C0.143,-0.075 0.141,-0.069 0.136,-0.064C0.132,-0.06 0.126,-0.057 0.121,-0.057C0.117,-0.057 0.109,-0.059 0.098,-0.062C0.091,-0.063 0.084,-0.064 0.078,-0.064C0.05,-0.064 0.024,-0.059 -0.001,-0.047C-0.019,-0.038 -0.03,-0.034 -0.036,-0.034C-0.044,-0.034 -0.05,-0.037 -0.056,-0.042C-0.061,-0.046 -0.063,-0.051 -0.063,-0.057C-0.063,-0.07 -0.048,-0.097 -0.016,-0.137C0.032,-0.197 0.083,-0.248 0.136,-0.29C0.101,-0.285 0.076,-0.283 0.063,-0.283C0.032,-0.283 0.017,-0.292 0.017,-0.311C0.017,-0.317 0.019,-0.322 0.022,-0.326C0.026,-0.329 0.03,-0.331 0.035,-0.331C0.039,-0.331 0.047,-0.33 0.061,-0.328C0.066,-0.327 0.074,-0.326 0.084,-0.326C0.112,-0.326 0.14,-0.329 0.166,-0.335C0.176,-0.338 0.185,-0.339 0.192,-0.339C0.2,-0.339 0.207,-0.336 0.212,-0.33C0.217,-0.326 0.219,-0.321 0.219,-0.314C0.219,-0.304 0.21,-0.292 0.191,-0.279C0.138,-0.237 0.1,-0.205 0.079,-0.182C0.048,-0.149 0.024,-0.12 0.008,-0.095Z" style="fill-rule:nonzero;"/>
            </g>
            <g transform="matrix(12,0,0,12,1257.93,253.122)">
                <path d="M0.16,-0.353C0.187,-0.353 0.2,-0.337 0.2,-0.304C0.2,-0.261 0.18,-0.206 0.14,-0.14C0.097,-0.068 0.054,-0.032 0.014,-0.032C-0.005,-0.032 -0.019,-0.041 -0.028,-0.058C-0.032,-0.067 -0.035,-0.077 -0.035,-0.09C-0.035,-0.132 -0.02,-0.177 0.008,-0.226C0.035,-0.271 0.066,-0.306 0.103,-0.331C0.124,-0.346 0.143,-0.353 0.16,-0.353ZM0.109,-0.168C0.101,-0.175 0.097,-0.18 0.097,-0.184C0.097,-0.186 0.102,-0.193 0.113,-0.205C0.142,-0.238 0.157,-0.264 0.157,-0.285C0.157,-0.287 0.156,-0.29 0.154,-0.292C0.152,-0.297 0.148,-0.3 0.142,-0.3C0.132,-0.3 0.116,-0.29 0.096,-0.27C0.07,-0.243 0.05,-0.217 0.037,-0.189C0.021,-0.157 0.013,-0.131 0.013,-0.11C0.013,-0.105 0.014,-0.1 0.017,-0.096C0.021,-0.09 0.027,-0.087 0.033,-0.087C0.049,-0.087 0.066,-0.099 0.083,-0.122C0.091,-0.132 0.098,-0.142 0.103,-0.152C0.107,-0.163 0.11,-0.168 0.109,-0.168Z" style="fill-rule:nonzero;"/>
            </g>
            <g transform="matrix(12,0,0,12,1260.72,253.122)">
                <path d="M0.16,-0.353C0.187,-0.353 0.2,-0.337 0.2,-0.304C0.2,-0.261 0.18,-0.206 0.14,-0.14C0.097,-0.068 0.054,-0.032 0.014,-0.032C-0.005,-0.032 -0.019,-0.041 -0.028,-0.058C-0.032,-0.067 -0.035,-0.077 -0.035,-0.09C-0.035,-0.132 -0.02,-0.177 0.008,-0.226C0.035,-0.271 0.066,-0.306 0.103,-0.331C0.124,-0.346 0.143,-0.353 0.16,-0.353ZM0.109,-0.168C0.101,-0.175 0.097,-0.18 0.097,-0.184C0.097,-0.186 0.102,-0.193 0.113,-0.205C0.142,-0.238 0.157,-0.264 0.157,-0.285C0.157,-0.287 0.156,-0.29 0.154,-0.292C0.152,-0.297 0.148,-0.3 0.142,-0.3C0.132,-0.3 0.116,-0.29 0.096,-0.27C0.07,-0.243 0.05,-0.217 0.037,-0.189C0.021,-0.157 0.013,-0.131 0.013,-0.11C0.013,-0.105 0.014,-0.1 0.017,-0.096C0.021,-0.09 0.027,-0.087 0.033,-0.087C0.049,-0.087 0.066,-0.099 0.083,-0.122C0.091,-0.132 0.098,-0.142 0.103,-0.152C0.107,-0.163 0.11,-0.168 0.109,-0.168Z" style="fill-rule:nonzero;"/>
            </g>
            <g transform="matrix(12,0,0,12,1263.5,253.122)">
                <path d="M0.056,-0.201C0.083,-0.229 0.107,-0.252 0.128,-0.268C0.16,-0.292 0.181,-0.305 0.191,-0.305C0.197,-0.305 0.201,-0.303 0.205,-0.299C0.209,-0.295 0.21,-0.291 0.21,-0.287C0.21,-0.281 0.205,-0.271 0.193,-0.257C0.176,-0.235 0.164,-0.216 0.157,-0.2C0.233,-0.277 0.285,-0.315 0.313,-0.315C0.319,-0.315 0.324,-0.313 0.328,-0.31C0.333,-0.306 0.335,-0.301 0.335,-0.295C0.335,-0.286 0.328,-0.274 0.314,-0.26C0.252,-0.196 0.222,-0.144 0.222,-0.104C0.222,-0.087 0.225,-0.075 0.23,-0.068L0.243,-0.052C0.246,-0.049 0.247,-0.045 0.247,-0.041C0.247,-0.035 0.245,-0.03 0.241,-0.026C0.236,-0.021 0.23,-0.018 0.224,-0.018C0.213,-0.018 0.203,-0.025 0.194,-0.039C0.183,-0.055 0.178,-0.074 0.178,-0.096C0.178,-0.126 0.186,-0.156 0.203,-0.186C0.209,-0.197 0.219,-0.211 0.232,-0.229C0.205,-0.208 0.177,-0.18 0.148,-0.143C0.128,-0.118 0.111,-0.091 0.095,-0.06C0.088,-0.045 0.079,-0.038 0.069,-0.038C0.058,-0.038 0.052,-0.044 0.052,-0.057C0.052,-0.07 0.061,-0.097 0.08,-0.139C0.09,-0.163 0.103,-0.188 0.118,-0.214C0.063,-0.171 0.021,-0.113 -0.007,-0.04C-0.014,-0.023 -0.023,-0.015 -0.035,-0.015C-0.04,-0.015 -0.044,-0.017 -0.047,-0.021C-0.051,-0.025 -0.053,-0.03 -0.053,-0.035C-0.053,-0.054 -0.042,-0.089 -0.021,-0.139C0.002,-0.192 0.027,-0.24 0.056,-0.282C0.075,-0.312 0.09,-0.327 0.101,-0.327C0.111,-0.327 0.116,-0.321 0.116,-0.311C0.116,-0.306 0.11,-0.295 0.098,-0.277C0.076,-0.243 0.063,-0.217 0.056,-0.201Z" style="fill-rule:nonzero;"/>
            </g>
            <g transform="matrix(12,0,0,12,1233.74,260.665)">
                <path d="M0.15,-0.353C0.129,-0.32 0.11,-0.283 0.092,-0.242C0.066,-0.184 0.053,-0.141 0.053,-0.112C0.053,-0.104 0.055,-0.098 0.058,-0.094C0.062,-0.09 0.067,-0.087 0.074,-0.087C0.09,-0.087 0.11,-0.103 0.133,-0.133C0.147,-0.152 0.16,-0.171 0.172,-0.19C0.178,-0.201 0.185,-0.206 0.192,-0.206C0.196,-0.206 0.2,-0.205 0.203,-0.202C0.205,-0.199 0.207,-0.196 0.207,-0.193C0.207,-0.181 0.191,-0.154 0.159,-0.112C0.121,-0.062 0.087,-0.037 0.056,-0.037C0.039,-0.037 0.025,-0.045 0.014,-0.06C0.007,-0.07 0.004,-0.084 0.004,-0.102C0.004,-0.141 0.015,-0.187 0.038,-0.239C0.044,-0.252 0.059,-0.284 0.084,-0.333C0.075,-0.331 0.069,-0.33 0.064,-0.33C0.057,-0.33 0.051,-0.332 0.046,-0.335C0.039,-0.34 0.035,-0.345 0.035,-0.352C0.035,-0.36 0.04,-0.367 0.049,-0.372C0.052,-0.373 0.064,-0.375 0.085,-0.378C0.093,-0.379 0.105,-0.382 0.12,-0.387C0.131,-0.408 0.15,-0.436 0.175,-0.471C0.19,-0.49 0.2,-0.503 0.205,-0.509C0.213,-0.517 0.22,-0.521 0.226,-0.521C0.23,-0.521 0.234,-0.519 0.238,-0.514C0.242,-0.51 0.244,-0.506 0.244,-0.501C0.244,-0.493 0.235,-0.476 0.217,-0.451C0.205,-0.435 0.196,-0.422 0.19,-0.412C0.226,-0.421 0.252,-0.426 0.268,-0.426C0.285,-0.426 0.294,-0.419 0.294,-0.404C0.294,-0.396 0.291,-0.391 0.285,-0.387C0.282,-0.385 0.273,-0.384 0.26,-0.382C0.254,-0.383 0.23,-0.376 0.186,-0.364C0.174,-0.36 0.162,-0.356 0.15,-0.353Z" style="fill-rule:nonzero;"/>
            </g>
            <g transform="matrix(12,0,0,12,1236.67,260.665)">
                <path d="M0.09,-0.238C0.114,-0.263 0.139,-0.284 0.163,-0.301C0.194,-0.322 0.216,-0.333 0.229,-0.333C0.235,-0.333 0.24,-0.331 0.245,-0.326C0.251,-0.321 0.254,-0.315 0.254,-0.308C0.254,-0.299 0.247,-0.286 0.233,-0.267C0.206,-0.231 0.185,-0.199 0.171,-0.169C0.159,-0.144 0.153,-0.127 0.153,-0.118C0.153,-0.109 0.157,-0.104 0.166,-0.104C0.183,-0.104 0.213,-0.136 0.254,-0.198C0.263,-0.211 0.271,-0.217 0.277,-0.217C0.284,-0.217 0.288,-0.213 0.288,-0.206C0.288,-0.193 0.275,-0.169 0.25,-0.133C0.229,-0.102 0.207,-0.078 0.183,-0.061C0.167,-0.05 0.152,-0.044 0.138,-0.044C0.124,-0.044 0.114,-0.05 0.108,-0.062C0.104,-0.069 0.102,-0.078 0.102,-0.087C0.102,-0.116 0.112,-0.149 0.133,-0.186C0.138,-0.195 0.152,-0.22 0.177,-0.261C0.11,-0.228 0.054,-0.155 0.008,-0.044C0.004,-0.031 -0.002,-0.025 -0.011,-0.025C-0.017,-0.025 -0.022,-0.027 -0.026,-0.031C-0.03,-0.036 -0.032,-0.041 -0.032,-0.048C-0.032,-0.059 -0.022,-0.089 -0.001,-0.139C0.038,-0.232 0.074,-0.311 0.107,-0.375C0.141,-0.441 0.178,-0.508 0.219,-0.578C0.229,-0.595 0.237,-0.606 0.242,-0.612C0.248,-0.618 0.254,-0.621 0.26,-0.621C0.266,-0.621 0.271,-0.618 0.275,-0.612C0.278,-0.607 0.28,-0.602 0.28,-0.596C0.28,-0.587 0.275,-0.575 0.264,-0.56C0.229,-0.505 0.194,-0.445 0.159,-0.38C0.122,-0.311 0.099,-0.263 0.09,-0.238Z" style="fill-rule:nonzero;"/>
            </g>
            <g transform="matrix(12,0,0,12,1240.42,260.665)">
                <path d="M0.01,-0.132L0.01,-0.123C0.01,-0.116 0.012,-0.11 0.015,-0.104C0.023,-0.092 0.037,-0.086 0.055,-0.086C0.096,-0.086 0.143,-0.118 0.196,-0.18C0.206,-0.191 0.214,-0.196 0.22,-0.196C0.224,-0.196 0.227,-0.194 0.23,-0.191C0.232,-0.188 0.233,-0.186 0.233,-0.184C0.233,-0.171 0.217,-0.149 0.186,-0.119C0.162,-0.095 0.136,-0.076 0.108,-0.061C0.08,-0.046 0.055,-0.039 0.031,-0.039C0.006,-0.039 -0.013,-0.047 -0.027,-0.064C-0.036,-0.076 -0.041,-0.092 -0.041,-0.112C-0.041,-0.167 -0.015,-0.221 0.037,-0.273C0.079,-0.316 0.115,-0.338 0.146,-0.338C0.155,-0.338 0.163,-0.335 0.169,-0.33C0.178,-0.323 0.182,-0.314 0.182,-0.303C0.182,-0.286 0.174,-0.265 0.158,-0.24C0.125,-0.188 0.076,-0.152 0.01,-0.132ZM0.021,-0.17C0.043,-0.178 0.061,-0.187 0.074,-0.196C0.097,-0.214 0.115,-0.234 0.128,-0.256C0.133,-0.264 0.136,-0.271 0.136,-0.277C0.136,-0.283 0.133,-0.287 0.126,-0.287C0.118,-0.287 0.106,-0.28 0.09,-0.268C0.062,-0.245 0.039,-0.213 0.021,-0.17Z" style="fill-rule:nonzero;"/>
            </g>
            <g transform="matrix(12,0,0,12,1246.72,260.665)">
                <path d="M0.1,-0.331C0.105,-0.331 0.11,-0.328 0.113,-0.324C0.116,-0.321 0.117,-0.317 0.117,-0.313C0.117,-0.308 0.112,-0.298 0.103,-0.284C0.069,-0.232 0.045,-0.189 0.031,-0.155C0.015,-0.12 0.002,-0.084 -0.01,-0.047C-0.015,-0.031 -0.023,-0.023 -0.034,-0.023C-0.041,-0.023 -0.046,-0.026 -0.05,-0.031C-0.053,-0.035 -0.055,-0.04 -0.055,-0.044C-0.055,-0.054 -0.045,-0.087 -0.024,-0.142C-0.008,-0.186 0.019,-0.234 0.055,-0.287C0.067,-0.304 0.076,-0.315 0.082,-0.321C0.087,-0.327 0.093,-0.331 0.1,-0.331ZM0.192,-0.512C0.207,-0.512 0.214,-0.504 0.214,-0.489C0.214,-0.476 0.207,-0.46 0.193,-0.444C0.179,-0.428 0.166,-0.42 0.153,-0.42C0.147,-0.42 0.142,-0.422 0.138,-0.427C0.134,-0.431 0.132,-0.436 0.132,-0.442C0.132,-0.458 0.141,-0.475 0.158,-0.492C0.171,-0.505 0.182,-0.512 0.192,-0.512Z" style="fill-rule:nonzero;"/>
            </g>
            <g transform="matrix(12,0,0,12,1248.3,260.665)">
                <path d="M0.056,-0.201C0.083,-0.229 0.107,-0.252 0.128,-0.268C0.16,-0.292 0.181,-0.305 0.191,-0.305C0.197,-0.305 0.201,-0.303 0.205,-0.299C0.209,-0.295 0.21,-0.291 0.21,-0.287C0.21,-0.281 0.205,-0.271 0.193,-0.257C0.176,-0.235 0.164,-0.216 0.157,-0.2C0.233,-0.277 0.285,-0.315 0.313,-0.315C0.319,-0.315 0.324,-0.313 0.328,-0.31C0.333,-0.306 0.335,-0.301 0.335,-0.295C0.335,-0.286 0.328,-0.274 0.314,-0.26C0.252,-0.196 0.222,-0.144 0.222,-0.104C0.222,-0.087 0.225,-0.075 0.23,-0.068L0.243,-0.052C0.246,-0.049 0.247,-0.045 0.247,-0.041C0.247,-0.035 0.245,-0.03 0.241,-0.026C0.236,-0.021 0.23,-0.018 0.224,-0.018C0.213,-0.018 0.203,-0.025 0.194,-0.039C0.183,-0.055 0.178,-0.074 0.178,-0.096C0.178,-0.126 0.186,-0.156 0.203,-0.186C0.209,-0.197 0.219,-0.211 0.232,-0.229C0.205,-0.208 0.177,-0.18 0.148,-0.143C0.128,-0.118 0.111,-0.091 0.095,-0.06C0.088,-0.045 0.079,-0.038 0.069,-0.038C0.058,-0.038 0.052,-0.044 0.052,-0.057C0.052,-0.07 0.061,-0.097 0.08,-0.139C0.09,-0.163 0.103,-0.188 0.118,-0.214C0.063,-0.171 0.021,-0.113 -0.007,-0.04C-0.014,-0.023 -0.023,-0.015 -0.035,-0.015C-0.04,-0.015 -0.044,-0.017 -0.047,-0.021C-0.051,-0.025 -0.053,-0.03 -0.053,-0.035C-0.053,-0.054 -0.042,-0.089 -0.021,-0.139C0.002,-0.192 0.027,-0.24 0.056,-0.282C0.075,-0.312 0.09,-0.327 0.101,-0.327C0.111,-0.327 0.116,-0.321 0.116,-0.311C0.116,-0.306 0.11,-0.295 0.098,-0.277C0.076,-0.243 0.063,-0.217 0.056,-0.201Z" style="fill-rule:nonzero;"/>
            </g>
            <g transform="matrix(12,0,0,12,1252.56,260.665)">
                <path d="M0.115,-0.119C0.104,-0.1 0.094,-0.084 0.083,-0.071C0.063,-0.045 0.043,-0.033 0.022,-0.033C0.005,-0.033 -0.009,-0.041 -0.019,-0.058C-0.025,-0.068 -0.028,-0.081 -0.028,-0.096C-0.028,-0.132 -0.016,-0.172 0.006,-0.215C0.032,-0.264 0.062,-0.301 0.098,-0.327C0.122,-0.344 0.144,-0.353 0.166,-0.353C0.18,-0.353 0.191,-0.348 0.2,-0.34C0.208,-0.332 0.212,-0.324 0.212,-0.314C0.212,-0.307 0.209,-0.297 0.204,-0.285C0.208,-0.278 0.211,-0.272 0.211,-0.267C0.211,-0.26 0.206,-0.249 0.197,-0.233C0.188,-0.217 0.178,-0.196 0.169,-0.169C0.159,-0.141 0.154,-0.119 0.154,-0.102C0.154,-0.088 0.158,-0.077 0.166,-0.068C0.168,-0.066 0.175,-0.062 0.186,-0.057C0.194,-0.053 0.198,-0.046 0.198,-0.037C0.198,-0.03 0.196,-0.025 0.191,-0.021C0.187,-0.017 0.181,-0.015 0.174,-0.015C0.157,-0.015 0.142,-0.023 0.129,-0.039C0.118,-0.051 0.113,-0.067 0.113,-0.086C0.113,-0.093 0.114,-0.104 0.115,-0.119ZM0.176,-0.279C0.172,-0.286 0.168,-0.292 0.164,-0.295C0.159,-0.299 0.154,-0.3 0.149,-0.3C0.124,-0.3 0.097,-0.279 0.068,-0.235C0.036,-0.188 0.021,-0.147 0.021,-0.114C0.021,-0.106 0.022,-0.099 0.025,-0.095C0.028,-0.091 0.033,-0.089 0.039,-0.089C0.055,-0.089 0.073,-0.105 0.094,-0.139C0.105,-0.157 0.12,-0.184 0.137,-0.219C0.149,-0.242 0.157,-0.258 0.162,-0.265C0.165,-0.269 0.169,-0.274 0.176,-0.279Z" style="fill-rule:nonzero;"/>
            </g>
            <g transform="matrix(12,0,0,12,1255.66,260.665)">
                <path d="M0.118,-0.08C0.153,-0.105 0.178,-0.129 0.195,-0.149C0.22,-0.18 0.238,-0.204 0.249,-0.223C0.254,-0.232 0.259,-0.236 0.265,-0.236C0.272,-0.236 0.276,-0.232 0.276,-0.225C0.276,-0.216 0.27,-0.201 0.258,-0.181C0.219,-0.118 0.162,-0.064 0.085,-0.017C0.049,0.058 0.023,0.109 0.006,0.135C-0.039,0.206 -0.081,0.241 -0.121,0.241C-0.142,0.241 -0.157,0.233 -0.166,0.216C-0.171,0.207 -0.174,0.196 -0.174,0.184C-0.174,0.133 -0.141,0.084 -0.075,0.037C-0.065,0.029 -0.023,0.005 0.051,-0.036C0.066,-0.066 0.077,-0.09 0.084,-0.107C0.05,-0.072 0.022,-0.054 -0,-0.054C-0.014,-0.054 -0.025,-0.061 -0.033,-0.075C-0.038,-0.085 -0.041,-0.094 -0.041,-0.104C-0.041,-0.128 -0.031,-0.158 -0.012,-0.195C0.016,-0.248 0.049,-0.29 0.087,-0.321C0.119,-0.347 0.148,-0.359 0.172,-0.359C0.185,-0.359 0.196,-0.355 0.205,-0.345C0.211,-0.339 0.214,-0.33 0.214,-0.318C0.214,-0.303 0.209,-0.284 0.199,-0.262C0.207,-0.255 0.21,-0.25 0.21,-0.246C0.21,-0.244 0.209,-0.241 0.206,-0.236C0.197,-0.224 0.183,-0.202 0.163,-0.168C0.146,-0.139 0.131,-0.11 0.118,-0.08ZM0.114,-0.193C0.11,-0.198 0.107,-0.201 0.107,-0.203C0.107,-0.206 0.11,-0.21 0.115,-0.214C0.131,-0.23 0.144,-0.246 0.154,-0.263C0.162,-0.277 0.167,-0.287 0.167,-0.294C0.167,-0.303 0.162,-0.308 0.154,-0.308C0.14,-0.308 0.12,-0.294 0.094,-0.268C0.063,-0.236 0.039,-0.201 0.022,-0.162C0.014,-0.142 0.009,-0.127 0.009,-0.117C0.009,-0.111 0.011,-0.106 0.013,-0.104C0.016,-0.101 0.02,-0.099 0.024,-0.099C0.036,-0.099 0.052,-0.111 0.072,-0.134C0.085,-0.149 0.096,-0.164 0.105,-0.178C0.112,-0.188 0.115,-0.193 0.114,-0.193ZM0.022,0.021C-0.021,0.039 -0.059,0.066 -0.092,0.104C-0.107,0.121 -0.118,0.139 -0.125,0.158C-0.126,0.164 -0.127,0.169 -0.127,0.173C-0.127,0.177 -0.126,0.181 -0.125,0.184C-0.121,0.19 -0.116,0.193 -0.109,0.193C-0.089,0.193 -0.066,0.171 -0.039,0.128C-0.015,0.09 0.005,0.055 0.022,0.021Z" style="fill-rule:nonzero;"/>
            </g>
            <g transform="matrix(12,0,0,12,1259.32,260.665)">
                <path d="M0.01,-0.132L0.01,-0.123C0.01,-0.116 0.012,-0.11 0.015,-0.104C0.023,-0.092 0.037,-0.086 0.055,-0.086C0.096,-0.086 0.143,-0.118 0.196,-0.18C0.206,-0.191 0.214,-0.196 0.22,-0.196C0.224,-0.196 0.227,-0.194 0.23,-0.191C0.232,-0.188 0.233,-0.186 0.233,-0.184C0.233,-0.171 0.217,-0.149 0.186,-0.119C0.162,-0.095 0.136,-0.076 0.108,-0.061C0.08,-0.046 0.055,-0.039 0.031,-0.039C0.006,-0.039 -0.013,-0.047 -0.027,-0.064C-0.036,-0.076 -0.041,-0.092 -0.041,-0.112C-0.041,-0.167 -0.015,-0.221 0.037,-0.273C0.079,-0.316 0.115,-0.338 0.146,-0.338C0.155,-0.338 0.163,-0.335 0.169,-0.33C0.178,-0.323 0.182,-0.314 0.182,-0.303C0.182,-0.286 0.174,-0.265 0.158,-0.24C0.125,-0.188 0.076,-0.152 0.01,-0.132ZM0.021,-0.17C0.043,-0.178 0.061,-0.187 0.074,-0.196C0.097,-0.214 0.115,-0.234 0.128,-0.256C0.133,-0.264 0.136,-0.271 0.136,-0.277C0.136,-0.283 0.133,-0.287 0.126,-0.287C0.118,-0.287 0.106,-0.28 0.09,-0.268C0.062,-0.245 0.039,-0.213 0.021,-0.17Z" style="fill-rule:nonzero;"/>
            </g>
        </g>
        <g transform="matrix(0.844085,0.536209,-0.536209,0.844085,623.477,-544.103)">
            <path d="M1222,469.265L1243.65,464.998C1244.76,464.767 1245.85,465.482 1246.08,466.593C1246.31,467.704 1245.6,468.793 1244.49,469.023L1220.47,474.249C1219.83,474.38 1219.17,474.237 1218.64,473.854C1218.12,473.471 1217.78,472.885 1217.72,472.239L1215.24,446.257C1215.12,445.128 1215.94,444.116 1217.07,443.998C1218.2,443.88 1219.21,444.7 1219.33,445.829L1222,469.265Z"/>
        </g>
        <g transform="matrix(1,-5.55112e-17,5.55112e-17,1,-3.84351,-6.79908)">
            <path d="M1403.83,516.715C1420.76,514.63 1435.68,507.534 1448.12,497.026C1453.44,492.533 1458.3,487.404 1462.67,481.786C1466.46,476.908 1469.88,471.658 1472.88,466.116C1477.27,457.998 1480.78,449.261 1483.4,440.219C1494.41,402.116 1489.48,358.524 1464.83,329.981C1464.26,329.302 1463.24,329.216 1462.56,329.79C1461.88,330.363 1461.8,331.379 1462.37,332.058C1485.5,360.06 1489.09,402.063 1477.91,438.586C1475.27,447.197 1471.8,455.497 1467.61,463.272C1464.77,468.549 1461.6,473.589 1458.09,478.299C1454.06,483.703 1449.59,488.681 1444.7,493.109C1433.21,503.5 1419.38,510.881 1403.37,513.529C1402.49,513.656 1401.88,514.473 1402.01,515.352C1402.13,516.231 1402.95,516.842 1403.83,516.715Z"/>
        </g>
    </g>
</svg>
